<svg width="37" height="37" viewBox="0 0 37 37" fill="none" xmlns="http://www.w3.org/2000/svg">
<g clip-path="url(#clip0_674_3066)">
<path d="M29.2917 37H7.70833C5.66471 36.9976 3.70548 36.1846 2.26042 34.7396C0.81536 33.2945 0.00244795 31.3353 0 29.2917L0 7.70833C0.00244795 5.66471 0.81536 3.70548 2.26042 2.26042C3.70548 0.81536 5.66471 0.00244795 7.70833 0L29.2917 0C31.3353 0.00244795 33.2945 0.81536 34.7396 2.26042C36.1846 3.70548 36.9976 5.66471 37 7.70833V29.2917C36.9976 31.3353 36.1846 33.2945 34.7396 34.7396C33.2945 36.1846 31.3353 36.9976 29.2917 37ZM7.70833 3.08333C6.48171 3.08333 5.30532 3.57061 4.43796 4.43796C3.57061 5.30532 3.08333 6.48171 3.08333 7.70833V29.2917C3.08333 30.5183 3.57061 31.6947 4.43796 32.562C5.30532 33.4294 6.48171 33.9167 7.70833 33.9167H29.2917C30.5183 33.9167 31.6947 33.4294 32.562 32.562C33.4294 31.6947 33.9167 30.5183 33.9167 29.2917V7.70833C33.9167 6.48171 33.4294 5.30532 32.562 4.43796C31.6947 3.57061 30.5183 3.08333 29.2917 3.08333H7.70833ZM14.4022 26.216C13.7596 26.2139 13.1288 26.0421 12.5738 25.7181C12.0255 25.4043 11.5704 24.9504 11.2551 24.403C10.9398 23.8555 10.7756 23.2341 10.7793 22.6024V14.3976C10.7788 13.7658 10.9445 13.1449 11.2597 12.5973C11.5749 12.0496 12.0286 11.5946 12.5752 11.2777C13.1219 10.9608 13.7423 10.7932 14.3741 10.7918C15.006 10.7904 15.6271 10.9551 16.1752 11.2696L24.3121 15.3319C24.8773 15.637 25.3506 16.0877 25.683 16.6373C26.0154 17.187 26.1947 17.8155 26.2024 18.4577C26.2101 19.1 26.0459 19.7326 25.7268 20.2901C25.4077 20.8475 24.9454 21.3095 24.3876 21.628L16.0996 25.7705C15.5827 26.0653 14.9973 26.219 14.4022 26.216ZM14.3637 13.8827C14.2787 13.8827 14.1953 13.905 14.1217 13.9475C14.0417 13.9919 13.9754 14.0573 13.9297 14.1366C13.8841 14.2159 13.8609 14.3061 13.8627 14.3976V22.6024C13.8632 22.6925 13.8871 22.7809 13.9322 22.859C13.9772 22.937 14.0418 23.002 14.1195 23.0476C14.1973 23.0932 14.2855 23.1177 14.3757 23.1189C14.4658 23.12 14.5546 23.0977 14.6335 23.0541L22.9215 18.9101C22.9832 18.8618 23.0323 18.7993 23.0645 18.7278C23.0968 18.6564 23.1112 18.5782 23.1065 18.5C23.1084 18.4083 23.0852 18.3178 23.0392 18.2385C22.9933 18.1591 22.9264 18.0938 22.846 18.0498L14.7152 13.9875C14.6092 13.9225 14.488 13.8864 14.3637 13.8827Z" fill="black"/>
</g>
<defs>
<clipPath id="clip0_674_3066">
<rect width="37" height="37" fill="white"/>
</clipPath>
</defs>
</svg>
