<svg width="35" height="35" viewBox="0 0 35 35" fill="none" xmlns="http://www.w3.org/2000/svg">
<path d="M30.625 1.45703H4.375C3.21468 1.45703 2.10188 1.91797 1.28141 2.73844C0.460936 3.55891 0 4.67171 0 5.83203L0 33.5404H35V5.83203C35 4.67171 34.5391 3.55891 33.7186 2.73844C32.8981 1.91797 31.7853 1.45703 30.625 1.45703ZM4.375 4.3737H30.625C31.0118 4.3737 31.3827 4.52734 31.6562 4.80083C31.9297 5.07432 32.0833 5.44526 32.0833 5.83203V10.207H2.91667V5.83203C2.91667 5.44526 3.07031 5.07432 3.3438 4.80083C3.61729 4.52734 3.98823 4.3737 4.375 4.3737ZM2.91667 30.6237V13.1237H32.0833V30.6237H2.91667ZM7.29167 17.4987H27.7083V20.4154H7.29167V17.4987ZM7.29167 23.332H21.875V26.2487H7.29167V23.332ZM4.375 7.29037C4.375 7.00193 4.46053 6.71998 4.62077 6.48016C4.78102 6.24034 5.00878 6.05342 5.27525 5.94304C5.54173 5.83266 5.83495 5.80378 6.11784 5.86005C6.40073 5.91632 6.66058 6.05522 6.86453 6.25917C7.06848 6.46312 7.20738 6.72297 7.26365 7.00586C7.31992 7.28875 7.29104 7.58197 7.18066 7.84844C7.07028 8.11492 6.88336 8.34268 6.64354 8.50292C6.40372 8.66317 6.12176 8.7487 5.83333 8.7487C5.44656 8.7487 5.07563 8.59505 4.80214 8.32156C4.52865 8.04807 4.375 7.67714 4.375 7.29037ZM8.75 7.29037C8.75 7.00193 8.83553 6.71998 8.99577 6.48016C9.15602 6.24034 9.38378 6.05342 9.65025 5.94304C9.91673 5.83266 10.21 5.80378 10.4928 5.86005C10.7757 5.91632 11.0356 6.05522 11.2395 6.25917C11.4435 6.46312 11.5824 6.72297 11.6386 7.00586C11.6949 7.28875 11.666 7.58197 11.5557 7.84844C11.4453 8.11492 11.2584 8.34268 11.0185 8.50292C10.7787 8.66317 10.4968 8.7487 10.2083 8.7487C9.82156 8.7487 9.45063 8.59505 9.17714 8.32156C8.90365 8.04807 8.75 7.67714 8.75 7.29037ZM13.125 7.29037C13.125 7.00193 13.2105 6.71998 13.3708 6.48016C13.531 6.24034 13.7588 6.05342 14.0253 5.94304C14.2917 5.83266 14.585 5.80378 14.8678 5.86005C15.1507 5.91632 15.4106 6.05522 15.6145 6.25917C15.8185 6.46312 15.9574 6.72297 16.0136 7.00586C16.0699 7.28875 16.041 7.58197 15.9307 7.84844C15.8203 8.11492 15.6334 8.34268 15.3935 8.50292C15.1537 8.66317 14.8718 8.7487 14.5833 8.7487C14.1966 8.7487 13.8256 8.59505 13.5521 8.32156C13.2786 8.04807 13.125 7.67714 13.125 7.29037Z" fill="black"/>
</svg>
