<svg width="36" height="36" viewBox="0 0 36 36" fill="none" xmlns="http://www.w3.org/2000/svg">
<g clip-path="url(#clip0_674_3074)">
<path d="M30 11.9989C30.0042 10.0562 29.5367 8.14147 28.6377 6.4193C27.7386 4.69713 26.4349 3.21899 24.8385 2.11189C23.2421 1.00478 21.4008 0.301809 19.4728 0.0633785C17.5447 -0.175052 15.5876 0.0581851 13.7696 0.74305C11.9516 1.42792 10.3271 2.54393 9.03562 3.9952C7.74412 5.44647 6.82429 7.18961 6.35515 9.07483C5.88601 10.9601 5.88159 12.931 6.34228 14.8183C6.80297 16.7056 7.71499 18.4528 8.99997 19.9099V32.2489C8.99996 32.9553 9.19949 33.6474 9.57557 34.2453C9.95165 34.8433 10.489 35.3229 11.1257 35.6289C11.7624 35.9349 12.4726 36.0548 13.1745 35.9748C13.8764 35.8949 14.5414 35.6182 15.093 35.1769L17.532 33.2269C17.6649 33.1208 17.8299 33.0629 18 33.0629C18.17 33.0629 18.3351 33.1208 18.468 33.2269L20.907 35.1769C21.4585 35.6182 22.1236 35.8949 22.8254 35.9748C23.5273 36.0548 24.2375 35.9349 24.8742 35.6289C25.5109 35.3229 26.0483 34.8433 26.4244 34.2453C26.8005 33.6474 27 32.9553 27 32.2489V19.9099C28.9324 17.7277 29.9995 14.9137 30 11.9989ZM18 2.99888C19.78 2.99888 21.5201 3.52672 23.0001 4.51565C24.4801 5.50459 25.6337 6.91019 26.3149 8.55473C26.9961 10.1993 27.1743 12.0089 26.827 13.7547C26.4798 15.5005 25.6226 17.1042 24.3639 18.3628C23.1053 19.6215 21.5016 20.4787 19.7558 20.8259C18.01 21.1732 16.2004 20.995 14.5558 20.3138C12.9113 19.6326 11.5057 18.4791 10.5167 16.999C9.52781 15.519 8.99997 13.7789 8.99997 11.9989C9.00235 9.61266 9.95133 7.32486 11.6386 5.63755C13.326 3.95024 15.6138 3.00126 18 2.99888ZM23.5755 32.9209C23.4486 32.9838 23.3062 33.0087 23.1655 32.9928C23.0247 32.9768 22.8916 32.9206 22.782 32.8309L20.343 30.8809C19.6791 30.3462 18.8524 30.0546 18 30.0546C17.1476 30.0546 16.3208 30.3462 15.657 30.8809L13.2195 32.8309C13.1094 32.9192 12.9766 32.9747 12.8365 32.991C12.6963 33.0073 12.5543 32.9837 12.4269 32.9229C12.2996 32.8621 12.1919 32.7666 12.1164 32.6474C12.0409 32.5281 12.0005 32.39 12 32.2489V22.3759C13.8209 23.4387 15.8915 23.9988 18 23.9988C20.1084 23.9988 22.179 23.4387 24 22.3759V32.2489C24.0016 32.3899 23.9625 32.5284 23.8871 32.6477C23.8118 32.7669 23.7036 32.8618 23.5755 32.9209Z" fill="black"/>
</g>
<defs>
<clipPath id="clip0_674_3074">
<rect width="36" height="36" fill="white"/>
</clipPath>
</defs>
</svg>
