<svg width="41" height="41" viewBox="0 0 41 41" fill="none" xmlns="http://www.w3.org/2000/svg">
<g clip-path="url(#clip0_674_3078)">
<path d="M20.5 27.3333C19.1485 27.3333 17.8273 26.9326 16.7036 26.1817C15.5799 25.4309 14.704 24.3636 14.1868 23.115C13.6696 21.8664 13.5343 20.4924 13.798 19.1669C14.0616 17.8414 14.7124 16.6238 15.6681 15.6681C16.6238 14.7124 17.8413 14.0616 19.1669 13.798C20.4924 13.5343 21.8664 13.6696 23.115 14.1868C24.3636 14.704 25.4309 15.5799 26.1817 16.7036C26.9326 17.8273 27.3333 19.1485 27.3333 20.5C27.3333 22.3123 26.6134 24.0504 25.3319 25.3319C24.0504 26.6134 22.3123 27.3333 20.5 27.3333ZM20.5 17.0833C19.8242 17.0833 19.1637 17.2837 18.6018 17.6591C18.0399 18.0346 17.602 18.5682 17.3434 19.1925C17.0848 19.8168 17.0172 20.5038 17.149 21.1666C17.2808 21.8293 17.6062 22.4381 18.0841 22.916C18.5619 23.3938 19.1707 23.7192 19.8334 23.851C20.4962 23.9829 21.1832 23.9152 21.8075 23.6566C22.4318 23.398 22.9654 22.9601 23.3409 22.3982C23.7163 21.8363 23.9167 21.1758 23.9167 20.5C23.9167 19.5938 23.5567 18.7248 22.9159 18.0841C22.2752 17.4433 21.4062 17.0833 20.5 17.0833ZM30.75 39.2917C30.75 36.5732 29.6701 33.9661 27.7478 32.0438C25.8256 30.1216 23.2185 29.0417 20.5 29.0417C17.7815 29.0417 15.1744 30.1216 13.2522 32.0438C11.3299 33.9661 10.25 36.5732 10.25 39.2917C10.25 39.7447 10.43 40.1793 10.7504 40.4996C11.0707 40.82 11.5053 41 11.9583 41C12.4114 41 12.8459 40.82 13.1663 40.4996C13.4867 40.1793 13.6667 39.7447 13.6667 39.2917C13.6667 37.4794 14.3866 35.7413 15.6681 34.4598C16.9496 33.1783 18.6877 32.4583 20.5 32.4583C22.3123 32.4583 24.0504 33.1783 25.3319 34.4598C26.6134 35.7413 27.3333 37.4794 27.3333 39.2917C27.3333 39.7447 27.5133 40.1793 27.8337 40.4996C28.1541 40.82 28.5886 41 29.0417 41C29.4947 41 29.9293 40.82 30.2496 40.4996C30.57 40.1793 30.75 39.7447 30.75 39.2917ZM30.75 13.6667C29.3985 13.6667 28.0773 13.2659 26.9536 12.515C25.8299 11.7642 24.954 10.697 24.4368 9.44834C23.9196 8.19971 23.7843 6.82576 24.048 5.50022C24.3116 4.17468 24.9624 2.9571 25.9181 2.00144C26.8738 1.04578 28.0913 0.394969 29.4169 0.131304C30.7424 -0.132362 32.1164 0.00296075 33.365 0.52016C34.6136 1.03736 35.6809 1.9132 36.4317 3.03694C37.1826 4.16068 37.5833 5.48183 37.5833 6.83334C37.5833 8.64565 36.8634 10.3837 35.5819 11.6652C34.3004 12.9467 32.5623 13.6667 30.75 13.6667ZM30.75 3.41667C30.0742 3.41667 29.4137 3.61705 28.8518 3.99248C28.2899 4.36791 27.852 4.90152 27.5934 5.52584C27.3348 6.15015 27.2672 6.83713 27.399 7.4999C27.5308 8.16266 27.8562 8.77146 28.3341 9.24928C28.8119 9.72711 29.4207 10.0525 30.0834 10.1844C30.7462 10.3162 31.4332 10.2485 32.0575 9.98993C32.6818 9.73133 33.2154 9.2934 33.5909 8.73153C33.9663 8.16967 34.1667 7.50909 34.1667 6.83334C34.1667 5.92718 33.8067 5.05814 33.1659 4.41739C32.5252 3.77664 31.6562 3.41667 30.75 3.41667ZM41 25.625C40.9973 22.9074 39.9165 20.3018 37.9949 18.3802C36.0732 16.4585 33.4676 15.3777 30.75 15.375C30.2969 15.375 29.8624 15.555 29.542 15.8754C29.2217 16.1957 29.0417 16.6303 29.0417 17.0833C29.0417 17.5364 29.2217 17.9709 29.542 18.2913C29.8624 18.6117 30.2969 18.7917 30.75 18.7917C32.5623 18.7917 34.3004 19.5116 35.5819 20.7931C36.8634 22.0746 37.5833 23.8127 37.5833 25.625C37.5833 26.0781 37.7633 26.5126 38.0837 26.833C38.4041 27.1534 38.8386 27.3333 39.2917 27.3333C39.7447 27.3333 40.1793 27.1534 40.4996 26.833C40.82 26.5126 41 26.0781 41 25.625ZM10.25 13.6667C8.89849 13.6667 7.57734 13.2659 6.4536 12.515C5.32987 11.7642 4.45402 10.697 3.93682 9.44834C3.41962 8.19971 3.2843 6.82576 3.54797 5.50022C3.81163 4.17468 4.46245 2.9571 5.4181 2.00144C6.37376 1.04578 7.59135 0.394969 8.91688 0.131304C10.2424 -0.132362 11.6164 0.00296075 12.865 0.52016C14.1136 1.03736 15.1809 1.9132 15.9317 3.03694C16.6826 4.16068 17.0833 5.48183 17.0833 6.83334C17.0833 8.64565 16.3634 10.3837 15.0819 11.6652C13.8004 12.9467 12.0623 13.6667 10.25 13.6667ZM10.25 3.41667C9.57425 3.41667 8.91367 3.61705 8.3518 3.99248C7.78993 4.36791 7.35201 4.90152 7.09341 5.52584C6.83481 6.15015 6.76715 6.83713 6.89898 7.4999C7.03082 8.16266 7.35622 8.77146 7.83405 9.24928C8.31188 9.72711 8.92067 10.0525 9.58344 10.1844C10.2462 10.3162 10.9332 10.2485 11.5575 9.98993C12.1818 9.73133 12.7154 9.2934 13.0909 8.73153C13.4663 8.16967 13.6667 7.50909 13.6667 6.83334C13.6667 5.92718 13.3067 5.05814 12.6659 4.41739C12.0252 3.77664 11.1562 3.41667 10.25 3.41667ZM3.41667 25.625C3.41667 23.8127 4.13661 22.0746 5.4181 20.7931C6.6996 19.5116 8.43769 18.7917 10.25 18.7917C10.7031 18.7917 11.1376 18.6117 11.458 18.2913C11.7783 17.9709 11.9583 17.5364 11.9583 17.0833C11.9583 16.6303 11.7783 16.1957 11.458 15.8754C11.1376 15.555 10.7031 15.375 10.25 15.375C7.53236 15.3777 4.92681 16.4585 3.00515 18.3802C1.08349 20.3018 0.00271357 22.9074 0 25.625C0 26.0781 0.179985 26.5126 0.500359 26.833C0.820734 27.1534 1.25526 27.3333 1.70833 27.3333C2.16141 27.3333 2.59593 27.1534 2.91631 26.833C3.23668 26.5126 3.41667 26.0781 3.41667 25.625Z" fill="black"/>
</g>
<defs>
<clipPath id="clip0_674_3078">
<rect width="41" height="41" fill="white"/>
</clipPath>
</defs>
</svg>
