<svg width="37" height="37" viewBox="0 0 37 37" fill="none" xmlns="http://www.w3.org/2000/svg">
<path d="M28.3944 13.2484C29.5892 14.4432 29.5892 16.3888 28.3944 17.5836L23.3085 22.6696L21.1285 20.4896L26.213 15.4037L21.1285 10.3424L23.3085 8.16247L28.3944 13.2484ZM13.69 8.16247L8.60404 13.2484C7.41079 14.4432 7.41079 16.3888 8.60404 17.5836L13.6885 22.6696L15.8684 20.4896L10.784 15.4284L15.8684 10.3424L13.6885 8.16247H13.69ZM20.0417 29.291V32.3744H27.75V35.4577H9.25V32.3744H16.9583V29.291H0V6.16602C0 3.6161 2.07508 1.54102 4.625 1.54102H32.375C34.9249 1.54102 37 3.6161 37 6.16602V29.291H20.0417ZM3.08333 26.2077H33.9167V6.16602C33.9167 5.31502 33.2245 4.62435 32.375 4.62435H4.625C3.77554 4.62435 3.08333 5.31502 3.08333 6.16602V26.2077Z" fill="black"/>
</svg>
