<svg width="85" height="85" viewBox="0 0 85 85" fill="none" xmlns="http://www.w3.org/2000/svg">
<g clip-path="url(#clip0_1008_1103)">
<path d="M77.918 35.416H74.3764C73.3989 35.416 72.6055 36.2094 72.6055 37.1869C72.6055 38.1644 73.3989 38.9578 74.3764 38.9578H77.918C78.8955 38.9578 79.6889 38.1644 79.6889 37.1869C79.6889 36.2094 78.8955 35.416 77.918 35.416Z" fill="black"/>
<path d="M10.625 35.416H7.08339C6.10589 35.416 5.3125 36.2094 5.3125 37.1869C5.3125 38.1644 6.10589 38.9578 7.08339 38.9578H10.625C11.6025 38.9578 12.3959 38.1644 12.3959 37.1869C12.3959 36.2094 11.6025 35.416 10.625 35.416Z" fill="black"/>
<path d="M42.5014 7.08339C43.4789 7.08339 44.2722 6.29 44.2722 5.3125V1.77089C44.2722 0.793389 43.4789 0 42.5014 0C41.5239 0 40.7305 0.793389 40.7305 1.77089V5.3125C40.7305 6.29 41.5239 7.08339 42.5014 7.08339Z" fill="black"/>
<path d="M66.2896 58.473C65.5989 57.7824 64.4762 57.7824 63.7855 58.473C63.0949 59.1637 63.0949 60.2864 63.7855 60.9771L66.293 63.4846C66.6402 63.8317 67.0934 64.0017 67.5468 64.0017C68.0002 64.0017 68.4534 63.8282 68.8005 63.4846C69.4912 62.7939 69.4912 61.6712 68.8005 60.9805L66.2896 58.473Z" fill="black"/>
<path d="M18.711 15.9025C19.0545 16.246 19.5079 16.4197 19.9613 16.4197C20.4147 16.4197 20.8679 16.2462 21.215 15.9025C21.9057 15.2119 21.9057 14.0891 21.215 13.3985L18.7075 10.891C18.0169 10.2004 16.8941 10.2004 16.2035 10.891C15.5129 11.5816 15.5129 12.7044 16.2035 13.395L18.711 15.9025Z" fill="black"/>
<path d="M18.7149 58.473L16.2074 60.9805C15.5168 61.6712 15.5168 62.7939 16.2074 63.4846C16.5509 63.828 17.0043 64.0017 17.4577 64.0017C17.9111 64.0017 18.3643 63.8282 18.7114 63.4846L21.2189 60.9771C21.9096 60.2864 21.9096 59.1637 21.2189 58.473C20.5283 57.7824 19.4055 57.7824 18.7149 58.473Z" fill="black"/>
<path d="M66.2965 10.891L63.7855 13.3985C63.0949 14.0891 63.0949 15.2119 63.7855 15.9025C64.1327 16.246 64.5859 16.4197 65.0393 16.4197C65.4927 16.4197 65.9459 16.2462 66.293 15.9025L68.8005 13.395C69.4912 12.7044 69.4912 11.5816 68.8005 10.891C68.1098 10.2004 66.9872 10.2004 66.2965 10.891Z" fill="black"/>
<path d="M39.7244 10.7887C29.705 11.9646 21.3113 20.0325 19.7672 29.9703C18.8747 35.7007 20.1107 41.4843 23.2487 46.255C27.7997 53.1683 30.1053 60.2409 30.1053 67.2712V69.0633C30.1053 70.0408 30.8987 70.8342 31.8762 70.8342H53.1262C54.1037 70.8342 54.8971 70.0408 54.8971 69.0633C54.8971 61.0627 57.2983 53.1293 61.8387 46.1205C64.2506 42.4017 65.5221 38.088 65.5221 33.6467C65.5219 20.0396 53.6608 9.13835 39.7244 10.7887ZM58.8707 44.1937C54.2913 51.2628 51.72 59.214 51.3941 67.2925H33.6469V67.2712C33.6469 59.5362 31.1429 51.8083 26.2059 44.3071C23.5532 40.2731 22.5084 35.375 23.2663 30.5124C24.5732 22.1151 31.6672 15.3008 40.1353 14.3057C51.9325 12.921 61.9803 22.1257 61.9803 33.6467C61.9801 37.4043 60.9035 41.0524 58.8707 44.1937Z" fill="black"/>
<path d="M35.6154 19.274C34.6238 19.7522 33.6675 20.3472 32.775 21.0378C31.9994 21.6328 31.8578 22.7449 32.4563 23.5169C32.8034 23.9703 33.3275 24.204 33.8588 24.204C34.2341 24.204 34.6166 24.0837 34.939 23.8357C35.6368 23.2973 36.3805 22.8334 37.1525 22.4615C38.0344 22.0365 38.4028 20.9775 37.9778 20.0993C37.5563 19.2209 36.4938 18.8525 35.6154 19.274Z" fill="black"/>
<path d="M31.2401 38.8315C30.9604 38.2365 30.7089 37.5706 30.5105 36.834C30.3015 36.0513 30.174 35.2403 30.1245 34.4256C30.0679 33.5048 30.1139 32.5556 30.2626 31.6065C30.4645 30.3068 30.8895 29.0494 31.5199 27.8665C31.9802 27.0024 31.658 25.9293 30.7939 25.4688C29.9333 25.0084 28.8636 25.3341 28.3998 26.1948C27.5782 27.7282 27.0291 29.3645 26.7635 31.061C26.5758 32.2581 26.5191 33.4657 26.59 34.6381C26.6538 35.6865 26.8203 36.7348 27.0894 37.7478C27.3232 38.6297 27.6419 39.4974 28.0315 40.3262C28.3928 41.0983 28.7824 41.7783 29.1649 42.359C29.5049 42.8762 30.0681 43.1559 30.6453 43.1559C30.9782 43.1559 31.3182 43.0603 31.6157 42.8619C32.4338 42.3235 32.6569 41.2256 32.1222 40.411C31.8245 39.9578 31.52 39.4335 31.2401 38.8315Z" fill="black"/>
<path d="M53.1264 74.375H31.8764C30.8989 74.375 30.1055 75.1684 30.1055 76.1459C30.1055 77.1234 30.8989 77.9168 31.8764 77.9168H53.1264C54.1039 77.9168 54.8972 77.1234 54.8972 76.1459C54.8972 75.1684 54.1039 74.375 53.1264 74.375Z" fill="black"/>
<path d="M49.582 81.459H35.4154C34.4379 81.459 33.6445 82.2524 33.6445 83.2299C33.6445 84.2074 34.4379 85.0008 35.4154 85.0008H49.582C50.5595 85.0008 51.3529 84.2074 51.3529 83.2299C51.3528 82.2522 50.5595 81.459 49.582 81.459Z" fill="black"/>
</g>
<defs>
<clipPath id="clip0_1008_1103">
<rect width="85" height="85" fill="white"/>
</clipPath>
</defs>
</svg>
