<svg width="71" height="57" viewBox="0 0 71 57" fill="none" xmlns="http://www.w3.org/2000/svg">
<path d="M70.3908 41.5902L64.8914 36.0907V17.227L68.4817 15.9326C69.3059 15.6353 69.8556 14.8537 69.8563 13.9774C69.857 13.1013 69.3084 12.3186 68.4845 12.0204L35.6363 0.124273C35.1788 -0.0414243 34.6773 -0.0414243 34.2199 0.124273L1.37176 12.0204C0.551042 12.3176 0.00334062 13.0955 1.281e-05 13.9684C-0.00303768 14.8412 0.538979 15.6231 1.35734 15.9264L13.4801 20.4171V34.1244C13.4801 34.5498 13.6105 34.965 13.8538 35.3139C13.9876 35.5058 15.2551 37.2367 18.5003 38.8701C22.6 40.9339 27.9772 41.9803 34.4822 41.9803C40.9825 41.9803 46.3869 40.9361 50.5451 38.8763C53.8223 37.2531 55.132 35.5402 55.2706 35.3504C55.5302 34.9944 55.6701 34.5653 55.6701 34.1246V20.5513L60.7318 18.7264V36.0907L55.2323 41.5902C54.8423 41.9802 54.6231 42.5092 54.6231 43.0608C54.6231 43.6124 54.8422 44.1415 55.2323 44.5314L60.7318 50.0307V54.6449C60.7318 55.7935 61.6631 56.7248 62.8117 56.7248C63.9604 56.7248 64.8916 55.7935 64.8916 54.6449V50.0307L70.3909 44.5314C71.2032 43.7194 71.2032 42.4023 70.3908 41.5902ZM34.9281 4.29194L61.6561 13.9716L34.4921 23.7649L8.12694 13.998L34.9281 4.29194ZM51.5102 33.2955C44.3999 39.6935 23.2714 38.9598 17.6399 33.3163V21.9582L33.7597 27.9296C34.0155 27.9701 34.257 28.1907 35.1876 27.936L51.5103 22.0513L51.5102 33.2955ZM62.8116 46.228L59.6442 43.0608L62.8116 39.8934L65.9788 43.0608L62.8116 46.228Z" fill="black"/>
</svg>
