<svg width="331" height="89" viewBox="0 0 331 89" fill="none" xmlns="http://www.w3.org/2000/svg">
<path d="M111.099 55.5359H126.27V64.9404H101.079V25.755H125.99V35.1035H111.099V40.5335H124.59V49.7701H111.099V55.5359ZM149.859 25.755H159.151V64.9404H149.859V62.3654C147.955 64.6046 145.306 65.7241 141.91 65.7241C138.178 65.7241 135.043 64.3247 132.505 61.5257C130.005 58.6894 128.754 55.1627 128.754 50.9456C128.754 46.7285 130.005 43.2205 132.505 40.4215C135.043 37.5852 138.178 36.1671 141.91 36.1671C145.306 36.1671 147.955 37.2867 149.859 39.5259V25.755ZM139.726 55.368C140.809 56.4876 142.227 57.0474 143.981 57.0474C145.735 57.0474 147.153 56.4876 148.235 55.368C149.318 54.2484 149.859 52.7743 149.859 50.9456C149.859 49.117 149.318 47.6428 148.235 46.5233C147.153 45.4037 145.735 44.8439 143.981 44.8439C142.227 44.8439 140.809 45.4037 139.726 46.5233C138.644 47.6428 138.103 49.117 138.103 50.9456C138.103 52.7743 138.644 54.2484 139.726 55.368ZM182.284 36.9508H191.576V64.9404H182.284V62.1415C180.604 64.5299 178.011 65.7241 174.503 65.7241C171.48 65.7241 168.998 64.6979 167.057 62.6453C165.154 60.5554 164.202 57.5698 164.202 53.6886V36.9508H173.495V52.513C173.495 53.9685 173.868 55.0694 174.615 55.8158C175.398 56.5622 176.425 56.9354 177.693 56.9354C179.149 56.9354 180.268 56.5062 181.052 55.6479C181.873 54.7522 182.284 53.4833 182.284 51.8413V36.9508ZM216.269 65.7801C210.372 65.7801 205.483 63.8395 201.602 59.9583C197.758 56.0397 195.836 51.1695 195.836 45.3477C195.836 39.5259 197.758 34.6743 201.602 30.7931C205.483 26.8745 210.372 24.9153 216.269 24.9153C219.814 24.9153 223.098 25.755 226.121 27.4343C229.144 29.1137 231.514 31.3715 233.231 34.2078L224.554 39.19C223.807 37.8092 222.688 36.7269 221.195 35.9432C219.74 35.1222 218.097 34.7116 216.269 34.7116C213.134 34.7116 210.596 35.7006 208.656 37.6785C206.752 39.6192 205.801 42.1755 205.801 45.3477C205.801 48.5199 206.752 51.0949 208.656 53.0728C210.596 55.0134 213.134 55.9838 216.269 55.9838C218.097 55.9838 219.74 55.5919 221.195 54.8082C222.688 53.9872 223.807 52.8676 224.554 51.4494L233.231 56.4876C231.514 59.3612 229.144 61.6377 226.121 63.317C223.136 64.9591 219.851 65.7801 216.269 65.7801ZM246.484 42.1569C247.006 40.3282 248.051 38.9101 249.618 37.9025C251.186 36.8948 252.94 36.391 254.881 36.391V46.6912C252.753 46.3553 250.813 46.7472 249.059 47.8668C247.342 48.9863 246.484 50.815 246.484 53.3527V64.9404H237.191V36.9508H246.484V42.1569ZM277.452 36.9508H286.745V64.9404H277.452V62.3654C275.549 64.6046 272.899 65.7241 269.503 65.7241C265.771 65.7241 262.636 64.3247 260.098 61.5257C257.598 58.6894 256.348 55.1627 256.348 50.9456C256.348 46.7285 257.598 43.2205 260.098 40.4215C262.636 37.5852 265.771 36.1671 269.503 36.1671C272.899 36.1671 275.549 37.2867 277.452 39.5259V36.9508ZM267.32 55.368C268.402 56.4876 269.82 57.0474 271.574 57.0474C273.328 57.0474 274.746 56.4876 275.829 55.368C276.911 54.2484 277.452 52.7743 277.452 50.9456C277.452 49.117 276.911 47.6428 275.829 46.5233C274.746 45.4037 273.328 44.8439 271.574 44.8439C269.82 44.8439 268.402 45.4037 267.32 46.5233C266.237 47.6428 265.696 49.117 265.696 50.9456C265.696 52.7743 266.237 54.2484 267.32 55.368ZM307.918 33.5361C304.708 33.3122 303.104 34.4504 303.104 36.9508H307.918V45.8515H303.104V64.9404H293.811V45.8515H290.284V36.9508H293.811C293.811 32.9203 294.987 29.8414 297.338 27.7142C299.726 25.587 303.253 24.654 307.918 24.9153V33.5361ZM328.783 45.8515H322.961V53.9685C322.961 55.2 323.409 55.9651 324.304 56.2636C325.2 56.5622 326.693 56.6555 328.783 56.5435V64.9404C323.222 65.6122 319.304 65.1084 317.027 63.429C314.788 61.7123 313.668 58.6334 313.668 54.1924V45.8515H309.47V36.9508H313.668V31.9127L322.961 29.1137V36.9508H328.783V45.8515Z" fill="url(#paint0_linear_1213_4275)"/>
<path fill-rule="evenodd" clip-rule="evenodd" d="M44.127 10.8806H61.0524C64.057 10.8806 66.4927 13.3163 66.4927 16.3209C66.4927 19.3255 64.057 21.7612 61.0524 21.7612H58.9088C58.8174 21.7601 58.7258 21.7596 58.6341 21.7596H44.1267C31.7744 21.7596 21.761 31.7731 21.761 44.1253C21.761 45.3804 21.8644 46.6114 22.0631 47.8101C22.0968 48.0139 22.1334 48.2168 22.1726 48.4187C24.1742 58.7177 33.2426 66.4927 44.127 66.4927H61.0524C64.057 66.4927 66.4927 68.9284 66.4927 71.933C66.4927 74.9376 64.057 77.3733 61.0524 77.3733H44.127C25.7655 77.3733 10.8806 62.4884 10.8806 44.127C10.8806 25.7655 25.7655 10.8806 44.127 10.8806ZM73.2331 61.0698C75.8082 63.9552 77.3733 67.7613 77.3733 71.933C77.3733 80.9468 70.0662 88.2539 61.0524 88.2539H44.127C19.7563 88.2539 0 68.4976 0 44.127C0 19.7563 19.7563 0 44.127 0H61.0524C70.0662 0 77.3733 7.30713 77.3733 16.3209C77.3733 20.4917 75.8088 24.2971 73.2347 27.1823C77.9899 31.2837 80.9999 37.353 80.9999 44.1253C80.9999 50.8984 77.9892 56.9683 73.2331 61.0698ZM32.8195 46.1503C33.7761 51.5276 38.4746 55.6104 44.1267 55.6104H58.6342C64.9772 55.6104 70.1193 50.4684 70.1193 44.1253C70.1193 37.848 65.0832 32.7469 58.8309 32.6419H44.127C37.7839 32.6419 32.6419 37.7839 32.6419 44.127C32.6419 44.8173 32.7028 45.4935 32.8195 46.1503ZM48.358 44.1281C48.358 46.465 46.4635 48.3595 44.1266 48.3595C41.7897 48.3595 39.8953 46.465 39.8953 44.1281C39.8953 41.7912 41.7897 39.8968 44.1266 39.8968C46.4635 39.8968 48.358 41.7912 48.358 44.1281ZM58.6349 48.3595C60.9718 48.3595 62.8662 46.465 62.8662 44.1281C62.8662 41.7912 60.9718 39.8968 58.6349 39.8968C56.298 39.8968 54.4035 41.7912 54.4035 44.1281C54.4035 46.465 56.298 48.3595 58.6349 48.3595Z" fill="url(#paint1_linear_1213_4275)"/>
<defs>
<linearGradient id="paint0_linear_1213_4275" x1="345" y1="22.4404" x2="64.5" y2="49.9404" gradientUnits="userSpaceOnUse">
<stop stop-color="#FFEDDB"/>
<stop offset="1" stop-color="#FFB9B9"/>
</linearGradient>
<linearGradient id="paint1_linear_1213_4275" x1="91.3469" y1="-6.42456" x2="-20.3979" y2="94.3822" gradientUnits="userSpaceOnUse">
<stop stop-color="#FF9900"/>
<stop offset="1" stop-color="#F06445"/>
</linearGradient>
</defs>
</svg>
